<svg width="595" height="439" viewBox="0 0 595 439" fill="none" xmlns="http://www.w3.org/2000/svg">
<g clip-path="url(#clip0_142_274)">
<path d="M290.34 315.799C290.34 315.799 295.956 306.588 303.166 312.034C310.376 317.48 323.728 326.669 323.728 326.669C323.728 326.669 326.463 332.546 319.384 330.339C312.306 328.131 289.199 324.578 289.199 324.578L290.34 315.799Z" fill="#FEB8B8"/>
<path d="M133.4 257.304C135.189 242.917 144.108 228.743 157.832 224.061C152.419 238.869 152.421 255.113 157.835 269.919C159.944 275.622 162.883 281.745 160.9 287.493C159.666 291.069 156.646 293.805 153.271 295.516C149.896 297.227 146.15 298.042 142.451 298.841L141.723 299.443C135.852 286.188 131.61 271.69 133.4 257.304Z" fill="#D4D4D8"/>
<path d="M157.968 224.333C149.976 233.286 145.008 244.528 143.771 256.464C143.459 259.028 143.554 261.626 144.051 264.162C144.615 266.616 145.827 268.874 147.559 270.702C149.14 272.438 150.959 274.032 152.09 276.122C152.653 277.201 152.982 278.387 153.055 279.602C153.127 280.816 152.942 282.033 152.512 283.171C151.513 286.035 149.544 288.369 147.54 290.585C145.314 293.046 142.964 295.566 142.017 298.828C141.903 299.223 141.296 299.022 141.411 298.627C143.057 292.952 148.567 289.729 151.195 284.617C152.421 282.232 152.936 279.463 151.786 276.946C150.781 274.744 148.907 273.099 147.291 271.355C145.575 269.596 144.316 267.445 143.623 265.087C142.998 262.586 142.804 259.996 143.048 257.429C143.506 251.641 144.872 245.961 147.094 240.597C149.597 234.461 153.132 228.798 157.545 223.854C157.818 223.548 158.239 224.029 157.968 224.333Z" fill="#D4D4D8"/>
<path d="M143.943 252.597C141.969 252.118 140.228 250.952 139.034 249.309C137.839 247.665 137.268 245.65 137.422 243.624C137.454 243.215 138.093 243.246 138.06 243.656C137.913 245.543 138.446 247.419 139.561 248.947C140.677 250.476 142.302 251.555 144.144 251.99C144.544 252.085 144.341 252.692 143.943 252.597Z" fill="#D4D4D8"/>
<path d="M146.641 269.927C150.208 267.797 152.841 264.402 154.016 260.419C154.132 260.024 154.738 260.225 154.623 260.619C153.393 264.762 150.645 268.29 146.929 270.497C146.574 270.707 146.289 270.136 146.641 269.927Z" fill="#D4D4D8"/>
<path d="M150.19 235.066C150.916 235.411 151.716 235.57 152.518 235.529C153.32 235.489 154.099 235.249 154.786 234.833C155.138 234.618 155.423 235.191 155.074 235.404C154.313 235.86 153.452 236.123 152.565 236.17C151.679 236.217 150.795 236.046 149.99 235.673C149.911 235.644 149.846 235.586 149.808 235.511C149.771 235.436 149.763 235.35 149.787 235.269C149.814 235.189 149.871 235.123 149.947 235.085C150.022 235.047 150.11 235.04 150.19 235.066Z" fill="#D4D4D8"/>
<path d="M199.664 249.757C199.449 249.897 199.233 250.037 199.017 250.183C196.127 252.083 193.396 254.214 190.851 256.557C190.651 256.735 190.451 256.918 190.257 257.101C184.186 262.81 179.228 269.595 175.634 277.113C174.207 280.106 173.01 283.203 172.052 286.377C170.731 290.761 169.647 295.62 167.03 299.206C166.762 299.583 166.47 299.943 166.157 300.284H142.514C142.461 300.257 142.407 300.236 142.353 300.209L141.409 300.252C141.447 300.085 141.49 299.912 141.527 299.745C141.549 299.648 141.576 299.551 141.598 299.454C141.614 299.389 141.63 299.325 141.641 299.265C141.646 299.244 141.652 299.222 141.657 299.206C141.668 299.147 141.684 299.093 141.695 299.039C141.932 298.074 142.177 297.108 142.428 296.143C142.428 296.138 142.428 296.138 142.434 296.132C144.37 288.782 146.938 281.529 150.525 274.897C150.633 274.697 150.74 274.492 150.859 274.293C152.493 271.312 154.367 268.469 156.464 265.794C157.616 264.333 158.842 262.931 160.137 261.593C163.489 258.144 167.362 255.243 171.615 252.998C180.095 248.522 189.912 246.807 198.974 249.541C199.206 249.611 199.433 249.681 199.664 249.757Z" fill="#D4D4D8"/>
<path d="M199.611 250.057C187.838 252.394 177.102 258.381 168.926 267.166C167.132 269.026 165.643 271.157 164.513 273.481C163.486 275.78 163.093 278.312 163.375 280.814C163.592 283.152 164.084 285.519 163.728 287.87C163.528 289.07 163.077 290.214 162.403 291.228C161.73 292.242 160.85 293.101 159.821 293.751C157.298 295.437 154.32 296.116 151.385 296.679C148.127 297.303 144.732 297.901 142.012 299.936C141.682 300.182 141.319 299.657 141.648 299.411C146.38 295.87 152.721 296.613 157.898 294.114C160.313 292.947 162.392 291.046 162.99 288.344C163.514 285.981 163.008 283.54 162.768 281.174C162.457 278.737 162.747 276.261 163.614 273.962C164.622 271.589 166.026 269.404 167.767 267.501C171.619 263.156 176.13 259.442 181.135 256.498C186.829 253.105 193.061 250.711 199.562 249.419C199.965 249.34 200.011 249.977 199.611 250.057Z" fill="#D4D4D8"/>
<path d="M171.392 264.182C170.104 262.611 169.416 260.633 169.452 258.602C169.488 256.57 170.245 254.618 171.588 253.093C171.861 252.785 172.352 253.195 172.079 253.503C170.825 254.92 170.12 256.739 170.091 258.631C170.061 260.522 170.709 262.362 171.917 263.818C172.179 264.135 171.652 264.497 171.392 264.182Z" fill="#D4D4D8"/>
<path d="M163.109 279.643C167.24 280.09 171.387 278.964 174.724 276.49C175.054 276.245 175.418 276.77 175.088 277.015C171.61 279.583 167.292 280.746 162.995 280.272C162.586 280.226 162.702 279.598 163.109 279.643Z" fill="#D4D4D8"/>
<path d="M186.938 253.945C187.309 254.657 187.852 255.265 188.517 255.716C189.182 256.166 189.949 256.444 190.748 256.525C191.158 256.566 191.041 257.194 190.634 257.154C189.751 257.06 188.905 256.752 188.169 256.256C187.433 255.76 186.83 255.092 186.412 254.309C186.367 254.238 186.35 254.153 186.365 254.071C186.38 253.988 186.426 253.914 186.493 253.864C186.563 253.817 186.649 253.798 186.732 253.813C186.815 253.829 186.889 253.876 186.938 253.945Z" fill="#D4D4D8"/>
<path d="M324.075 352.651C324.769 347.076 328.225 341.582 333.544 339.768C331.447 345.507 331.447 351.802 333.545 357.54C334.363 359.75 335.502 362.124 334.733 364.351C334.183 365.728 333.124 366.841 331.777 367.46C330.44 368.067 329.03 368.5 327.583 368.749L327.301 368.982C325.026 363.845 323.382 358.227 324.075 352.651Z" fill="#D4D4D8"/>
<path d="M333.597 339.873C330.5 343.343 328.574 347.7 328.095 352.326C327.974 353.32 328.011 354.326 328.203 355.309C328.422 356.26 328.891 357.135 329.563 357.844C330.231 358.47 330.821 359.176 331.319 359.944C331.537 360.362 331.665 360.822 331.693 361.293C331.721 361.763 331.649 362.235 331.482 362.676C331.039 363.753 330.384 364.73 329.556 365.549C328.693 366.503 327.782 367.48 327.415 368.744C327.371 368.897 327.136 368.819 327.18 368.666C327.818 366.467 329.954 365.218 330.972 363.237C331.235 362.791 331.392 362.292 331.431 361.777C331.471 361.261 331.392 360.744 331.201 360.263C330.739 359.453 330.151 358.722 329.459 358.097C328.794 357.415 328.306 356.581 328.037 355.668C327.795 354.698 327.72 353.694 327.815 352.7C327.992 350.456 328.521 348.255 329.383 346.176C330.353 343.798 331.723 341.604 333.433 339.688C333.539 339.569 333.702 339.756 333.597 339.873Z" fill="#D4D4D8"/>
<path d="M328.162 350.827C327.396 350.641 326.722 350.19 326.259 349.553C325.796 348.916 325.574 348.135 325.634 347.35C325.647 347.191 325.894 347.203 325.882 347.362C325.825 348.093 326.031 348.82 326.463 349.413C326.896 350.005 327.526 350.423 328.239 350.592C328.394 350.629 328.316 350.864 328.162 350.827Z" fill="#D4D4D8"/>
<path d="M329.207 357.543C330.59 356.718 331.61 355.402 332.065 353.858C332.11 353.705 332.345 353.783 332.3 353.936C331.824 355.542 330.759 356.909 329.319 357.764C329.181 357.846 329.071 357.624 329.207 357.543Z" fill="#D4D4D8"/>
<path d="M330.583 344.033C330.864 344.166 331.174 344.228 331.485 344.212C331.796 344.197 332.098 344.104 332.364 343.943C332.5 343.859 332.611 344.081 332.475 344.164C332.18 344.341 331.847 344.443 331.503 344.461C331.16 344.479 330.817 344.413 330.505 344.268C330.475 344.257 330.449 344.235 330.435 344.205C330.42 344.176 330.417 344.143 330.426 344.112C330.437 344.081 330.459 344.055 330.488 344.04C330.518 344.025 330.552 344.023 330.583 344.033Z" fill="#D4D4D8"/>
<path d="M349.756 349.726C349.673 349.781 349.589 349.835 349.506 349.891C348.385 350.628 347.327 351.454 346.341 352.362C346.263 352.431 346.186 352.502 346.111 352.573C343.758 354.785 341.836 357.415 340.443 360.328C339.89 361.488 339.426 362.688 339.055 363.919C338.543 365.618 338.123 367.501 337.109 368.89C337.005 369.037 336.892 369.176 336.77 369.308H327.608C327.587 369.298 327.566 369.29 327.545 369.279L327.179 369.296C327.194 369.231 327.211 369.164 327.225 369.099C327.234 369.062 327.244 369.024 327.252 368.987C327.259 368.961 327.265 368.936 327.269 368.913C327.271 368.905 327.273 368.897 327.275 368.89C327.28 368.867 327.286 368.847 327.29 368.826C327.382 368.452 327.477 368.077 327.574 367.703L327.576 367.699C328.292 364.842 329.345 362.079 330.712 359.469C330.754 359.392 330.796 359.312 330.842 359.235C331.475 358.08 332.201 356.978 333.014 355.942C333.46 355.375 333.936 354.832 334.437 354.314C335.736 352.977 337.237 351.853 338.886 350.982C342.172 349.248 345.977 348.583 349.489 349.643C349.579 349.67 349.667 349.697 349.756 349.726Z" fill="#D4D4D8"/>
<path d="M349.736 349.842C345.173 350.748 341.012 353.069 337.844 356.473C337.149 357.194 336.571 358.02 336.134 358.921C335.735 359.812 335.583 360.793 335.693 361.763C335.849 362.665 335.895 363.583 335.829 364.497C335.752 364.962 335.577 365.406 335.316 365.799C335.055 366.191 334.714 366.525 334.315 366.776C333.312 367.37 332.201 367.755 331.046 367.911C329.783 368.153 328.467 368.385 327.413 369.173C327.285 369.269 327.145 369.065 327.272 368.97C329.106 367.598 331.564 367.886 333.57 366.917C334.048 366.719 334.474 366.415 334.816 366.028C335.158 365.64 335.407 365.179 335.543 364.681C335.663 363.756 335.634 362.818 335.457 361.902C335.337 360.958 335.449 359.998 335.785 359.107C336.176 358.187 336.72 357.341 337.395 356.603C338.887 354.919 340.636 353.48 342.575 352.339C344.782 351.024 347.197 350.096 349.717 349.596C349.873 349.565 349.891 349.812 349.736 349.842Z" fill="#D4D4D8"/>
<path d="M338.799 355.317C338.3 354.708 338.034 353.941 338.048 353.154C338.062 352.367 338.355 351.61 338.875 351.019C338.981 350.9 339.171 351.059 339.066 351.178C338.58 351.727 338.307 352.432 338.295 353.165C338.284 353.899 338.535 354.612 339.003 355.176C339.105 355.299 338.9 355.439 338.799 355.317Z" fill="#D4D4D8"/>
<path d="M335.589 361.309C337.19 361.482 338.797 361.046 340.091 360.087C340.219 359.992 340.359 360.195 340.232 360.29C338.884 361.286 337.211 361.736 335.545 361.552C335.387 361.535 335.432 361.291 335.589 361.309Z" fill="#D4D4D8"/>
<path d="M344.824 351.349C344.968 351.625 345.179 351.861 345.436 352.036C345.694 352.21 345.991 352.318 346.301 352.349C346.46 352.365 346.414 352.609 346.257 352.593C345.915 352.557 345.587 352.437 345.301 352.245C345.016 352.053 344.783 351.794 344.621 351.49C344.603 351.463 344.596 351.43 344.602 351.398C344.608 351.366 344.626 351.338 344.652 351.318C344.679 351.3 344.712 351.293 344.744 351.298C344.777 351.304 344.805 351.323 344.824 351.349Z" fill="#D4D4D8"/>
<path d="M481.497 234.221C478.747 212.109 465.039 190.322 443.944 183.126C452.263 205.885 452.261 230.853 443.939 253.612C440.698 262.377 436.179 271.789 439.228 280.623C441.125 286.12 445.766 290.326 450.954 292.955C456.142 295.585 461.899 296.838 467.584 298.066L468.703 298.992C477.729 278.618 484.248 256.333 481.497 234.221Z" fill="#D4D4D8"/>
<path d="M443.735 183.544C456.019 197.304 463.654 214.584 465.556 232.93C465.939 236.863 465.986 240.885 465.126 244.762C464.258 248.534 462.397 252.005 459.734 254.814C457.303 257.484 454.508 259.933 452.769 263.146C450.937 266.533 450.866 270.382 452.121 273.98C453.656 278.382 456.682 281.97 459.763 285.376C463.184 289.158 466.797 293.032 468.251 298.046C468.428 298.653 469.36 298.344 469.184 297.738C466.654 289.015 458.184 284.06 454.145 276.203C452.26 272.537 451.469 268.281 453.236 264.411C454.781 261.027 457.661 258.499 460.145 255.818C462.754 253.002 464.754 249.913 465.784 246.185C466.838 242.372 466.948 238.338 466.667 234.413C465.963 225.517 463.865 216.786 460.448 208.542C456.601 199.111 451.168 190.407 444.385 182.807C443.965 182.337 443.317 183.077 443.735 183.544Z" fill="#D4D4D8"/>
<path d="M465.291 226.987C468.327 226.25 471.002 224.458 472.838 221.932C474.674 219.406 475.552 216.309 475.316 213.195C475.266 212.566 474.284 212.614 474.334 213.244C474.56 216.144 473.742 219.028 472.027 221.377C470.312 223.726 467.814 225.385 464.983 226.054C464.368 226.2 464.68 227.132 465.291 226.987Z" fill="#D4D4D8"/>
<path d="M461.144 253.623C455.662 250.35 451.615 245.132 449.81 239.009C449.631 238.402 448.699 238.711 448.877 239.317C450.767 245.685 454.99 251.107 460.703 254.5C461.247 254.823 461.686 253.944 461.144 253.623Z" fill="#D4D4D8"/>
<path d="M455.689 200.041C454.574 200.571 453.345 200.815 452.112 200.753C450.879 200.69 449.681 200.322 448.625 199.683C448.085 199.353 447.646 200.232 448.183 200.56C449.353 201.261 450.677 201.666 452.039 201.738C453.401 201.81 454.76 201.548 455.997 200.974C456.118 200.929 456.218 200.84 456.276 200.725C456.334 200.61 456.346 200.477 456.31 200.353C456.268 200.23 456.18 200.128 456.064 200.07C455.947 200.011 455.813 200.001 455.689 200.041Z" fill="#D4D4D8"/>
<path d="M379.645 222.621C379.977 222.836 380.308 223.052 380.64 223.276C385.083 226.196 389.281 229.473 393.192 233.073C393.499 233.346 393.806 233.628 394.105 233.91C403.436 242.684 411.058 253.113 416.581 264.669C418.775 269.269 420.615 274.029 422.086 278.908C424.118 285.647 425.784 293.115 429.805 298.627C430.218 299.206 430.667 299.76 431.149 300.284H467.488C467.57 300.243 467.653 300.21 467.736 300.168L469.187 300.235C469.129 299.978 469.063 299.712 469.005 299.456C468.971 299.306 468.93 299.157 468.897 299.008C468.872 298.909 468.847 298.809 468.831 298.718C468.822 298.685 468.814 298.652 468.806 298.627C468.789 298.536 468.764 298.453 468.748 298.37C468.383 296.886 468.007 295.402 467.62 293.919C467.62 293.911 467.62 293.911 467.612 293.902C464.635 282.605 460.689 271.457 455.176 261.262C455.01 260.955 454.844 260.64 454.661 260.334C452.151 255.752 449.27 251.383 446.047 247.271C444.275 245.025 442.391 242.87 440.401 240.814C435.249 235.513 429.296 231.054 422.758 227.602C409.725 220.723 394.635 218.087 380.706 222.289C380.35 222.397 380.002 222.505 379.645 222.621Z" fill="#D4D4D8"/>
<path d="M379.727 223.082C397.822 226.675 414.325 235.877 426.892 249.38C429.567 252.289 432.026 255.473 433.674 259.086C435.254 262.62 435.857 266.512 435.423 270.358C435.09 273.952 434.334 277.59 434.881 281.202C435.457 285.01 437.719 288.125 440.887 290.243C444.764 292.833 449.341 293.877 453.852 294.742C458.861 295.703 464.079 296.621 468.26 299.749C468.766 300.128 469.325 299.32 468.819 298.941C461.546 293.499 451.799 294.641 443.842 290.8C440.129 289.007 436.935 286.085 436.015 281.932C435.211 278.3 435.988 274.547 436.356 270.911C436.743 267.093 436.479 263.423 435.057 259.826C433.602 256.147 431.261 252.86 428.673 249.895C422.753 243.216 415.819 237.508 408.126 232.982C399.374 227.767 389.795 224.088 379.802 222.103C379.184 221.98 379.112 222.96 379.727 223.082Z" fill="#D4D4D8"/>
<path d="M423.102 244.794C425.082 242.379 426.138 239.338 426.083 236.216C426.028 233.094 424.864 230.093 422.8 227.749C422.381 227.276 421.626 227.905 422.046 228.379C423.972 230.558 425.056 233.353 425.101 236.261C425.147 239.168 424.151 241.996 422.294 244.235C421.891 244.722 422.701 245.278 423.102 244.794Z" fill="#D4D4D8"/>
<path d="M435.832 268.558C429.484 269.245 423.109 267.514 417.98 263.711C417.473 263.334 416.914 264.142 417.421 264.519C422.766 268.466 429.403 270.253 436.007 269.524C436.637 269.454 436.458 268.488 435.832 268.558Z" fill="#D4D4D8"/>
<path d="M399.207 229.059C398.636 230.153 397.802 231.088 396.779 231.78C395.757 232.472 394.579 232.9 393.351 233.024C392.721 233.086 392.9 234.052 393.526 233.991C394.883 233.847 396.183 233.373 397.314 232.611C398.445 231.849 399.372 230.821 400.015 229.618C400.085 229.51 400.111 229.379 400.088 229.252C400.065 229.125 399.994 229.011 399.891 228.935C399.783 228.861 399.651 228.833 399.523 228.856C399.395 228.879 399.282 228.952 399.207 229.059Z" fill="#D4D4D8"/>
<path d="M523.861 300.824H83.5301C83.3871 300.824 83.2499 300.767 83.1487 300.666C83.0476 300.565 82.9907 300.427 82.9907 300.284C82.9907 300.141 83.0476 300.004 83.1487 299.903C83.2499 299.802 83.3871 299.745 83.5301 299.745H523.685C523.828 299.745 523.965 299.802 524.066 299.903C524.168 300.004 524.224 300.141 524.224 300.284C524.224 300.582 524.159 300.824 523.861 300.824Z" fill="#CACACA"/>
<path d="M237.437 348.278H140.168C140.025 348.278 139.887 348.221 139.786 348.12C139.685 348.019 139.628 347.881 139.628 347.738C139.628 347.595 139.685 347.458 139.786 347.357C139.887 347.256 140.025 347.199 140.168 347.199H237.261C237.404 347.199 237.541 347.256 237.642 347.357C237.743 347.458 237.8 347.595 237.8 347.738C237.8 348.036 237.735 348.278 237.437 348.278Z" fill="#CACACA"/>
<path d="M390.089 369.308H292.819C292.676 369.308 292.539 369.252 292.438 369.15C292.337 369.049 292.28 368.912 292.28 368.769C292.28 368.626 292.337 368.489 292.438 368.388C292.539 368.287 292.676 368.23 292.819 368.23H389.912C390.055 368.23 390.193 368.287 390.294 368.388C390.395 368.489 390.452 368.626 390.452 368.769C390.452 369.067 390.387 369.308 390.089 369.308Z" fill="#CACACA"/>
<path d="M481.788 347.738H384.518C384.375 347.738 384.238 347.682 384.137 347.58C384.036 347.479 383.979 347.342 383.979 347.199C383.979 347.056 384.036 346.919 384.137 346.818C384.238 346.717 384.375 346.66 384.518 346.66H481.611C481.754 346.66 481.892 346.717 481.993 346.818C482.094 346.919 482.151 347.056 482.151 347.199C482.151 347.497 482.086 347.738 481.788 347.738Z" fill="#CACACA"/>
<path d="M262.752 327.247C256.71 327.247 251.178 326.668 246.783 325.3C241.559 323.674 238.279 321.044 237.032 317.478C236.447 315.964 236.272 314.321 236.525 312.718C236.779 311.114 237.452 309.607 238.476 308.347C246.205 298.28 273.023 295.44 276.622 295.105L283.922 281.285C284.389 277.988 282.179 275.491 285.997 275.429L331.164 274.816C334.914 274.737 333.85 277.059 334.492 280.273L341.374 292.554L311.757 305.05L316.235 315.959L315.942 316.128C307.274 321.155 282.347 327.246 262.752 327.247Z" fill="#2F2E41"/>
<path d="M337.273 293.079C337.273 293.079 378.635 288.347 375.938 307.275C373.24 326.203 341.769 339.61 294.113 307.275L299.508 297.811C299.508 297.811 317.267 296.928 328.057 292.196L337.273 293.079Z" fill="#2F2E41"/>
<path d="M278.716 207.327C278.716 207.327 270.855 205.898 268.711 218.044C266.567 230.19 263.132 258.96 263.132 258.96L252.469 295.917C251.211 296.585 250.169 297.596 249.465 298.833C248.761 300.071 248.423 301.483 248.492 302.905C248.56 304.326 249.032 305.699 249.852 306.863C250.672 308.027 251.806 308.934 253.123 309.477C254.439 310.02 255.882 310.178 257.285 309.932C258.687 309.686 259.991 309.046 261.043 308.087C262.095 307.128 262.853 305.889 263.227 304.516C263.601 303.142 263.577 301.691 263.157 300.331L277.426 261.107L280.145 227.335V209.639C280.145 209.159 280.012 208.689 279.759 208.28C279.507 207.872 279.145 207.542 278.716 207.327Z" fill="#FEB8B8"/>
<path d="M334.05 207.327C334.05 207.327 341.912 205.898 344.056 218.044C346.2 230.19 349.634 258.96 349.634 258.96L360.298 295.917C361.555 296.585 362.597 297.596 363.301 298.833C364.006 300.071 364.343 301.483 364.274 302.905C364.206 304.326 363.734 305.699 362.914 306.863C362.094 308.027 360.96 308.934 359.644 309.477C358.328 310.02 356.884 310.178 355.482 309.932C354.079 309.686 352.776 309.046 351.723 308.087C350.671 307.128 349.914 305.889 349.539 304.516C349.165 303.142 349.189 301.691 349.609 300.331L335.341 261.107L332.621 227.335V209.639C332.621 209.159 332.755 208.689 333.007 208.28C333.26 207.872 333.621 207.542 334.05 207.327Z" fill="#FEB8B8"/>
<path d="M333.451 197.288L318.581 191.728L289.759 191.356L277.353 197.288L280.837 217.308C280.837 217.308 273.802 229.217 281.548 241.128L283.286 283.568C283.286 283.568 311.075 299.677 334.53 280.332L329.229 240.873C329.229 240.873 338.096 222.566 331.223 215.764L333.451 197.288Z" fill="#22C55E"/>
<path d="M327.395 203.509L333.451 197.288C333.451 197.288 346.669 204.238 346.397 227.486L329.723 222.348L327.395 203.509Z" fill="#22C55E"/>
<path d="M284.081 203.509L277.647 197.076C277.647 197.076 266.293 205.856 266.565 229.103L281.753 222.348L284.081 203.509Z" fill="#22C55E"/>
<path d="M326.027 311.2C326.027 311.2 321.396 301.458 313.661 306.128C305.925 310.798 291.693 318.556 291.693 318.556C291.693 318.556 288.364 324.118 295.633 322.655C302.902 321.192 326.253 320.05 326.253 320.05L326.027 311.2Z" fill="#FEB8B8"/>
<path d="M313.159 137.044C313.225 136.982 313.293 136.925 313.358 136.861C317.497 132.723 318.336 126.853 315.231 123.749C312.298 120.817 306.894 121.408 302.816 124.974C299.319 121.646 294.63 120.718 291.595 123.016C288.095 125.665 288.122 131.595 291.656 136.26C291.898 136.579 292.152 136.882 292.412 137.172C287.71 138.893 283.649 142.016 280.781 146.12C277.912 150.224 276.374 155.109 276.374 160.115V183.368C276.374 184.05 276.508 184.725 276.769 185.355C277.03 185.985 277.413 186.557 277.895 187.039C278.378 187.521 278.95 187.904 279.58 188.165C280.21 188.426 280.886 188.56 281.568 188.56H324.556C325.887 188.56 327.164 188.031 328.105 187.09C329.047 186.149 329.575 184.873 329.575 183.542V160.115C329.575 155.042 327.994 150.094 325.052 145.96C322.11 141.825 317.954 138.709 313.159 137.044Z" fill="#2F2E41"/>
<path d="M318.078 180.267C326.044 172.303 326.044 159.391 318.078 151.427C310.112 143.462 297.196 143.462 289.229 151.427C281.263 159.391 281.263 172.303 289.229 180.267C297.196 188.231 310.112 188.231 318.078 180.267Z" fill="#FFB6B6"/>
<path d="M282.219 153.019C286.881 156.231 292.413 157.941 298.075 157.918C296.055 159.318 293.756 160.264 291.336 160.69C298.863 162.304 306.643 162.348 314.188 160.818C315.865 160.549 317.483 159.994 318.971 159.175C319.713 158.761 320.359 158.196 320.868 157.516C321.377 156.836 321.737 156.056 321.924 155.228C322.426 152.364 320.194 149.763 317.875 148.01C314.323 145.366 310.229 143.545 305.888 142.678C301.546 141.811 297.066 141.919 292.772 142.995C289.967 143.719 287.158 144.944 285.337 147.195C283.516 149.446 282.976 152.917 284.711 155.235L282.219 153.019Z" fill="#2F2E41"/>
<path d="M173.109 112.324L173.752 111.458L190.877 124.157C189.947 121.321 186.653 112.332 181.252 108.745C174.801 104.46 170.262 105.793 167.789 109.514C165.316 113.235 165.846 117.934 172.297 122.22C177.766 125.852 187.508 125.347 190.35 125.109L173.109 112.324Z" fill="#D4D4D8"/>
<path d="M430.782 42.7961L431.577 43.5254L417.161 59.2324C420.079 58.6019 429.365 56.2615 433.495 51.2652C438.429 45.2964 437.575 40.6447 434.131 37.7989C430.686 34.9532 425.956 34.9909 421.021 40.9598C416.839 46.0193 416.328 55.7582 416.269 58.609L430.782 42.7961Z" fill="#D4D4D8"/>
<path d="M198.298 210.503L199.093 211.232L184.678 226.939C187.596 226.309 196.882 223.968 201.012 218.972C205.946 213.003 205.092 208.351 201.647 205.506C198.202 202.66 193.472 202.698 188.538 208.667C184.355 213.726 183.844 223.465 183.786 226.316L198.298 210.503Z" fill="#D4D4D8"/>
<path d="M320.191 60.7951L321.125 61.3354L310.446 79.7858C313.159 78.5398 321.719 74.2484 324.672 68.4778C328.199 61.584 326.359 57.2268 322.381 55.1925C318.402 53.1582 313.792 54.2171 310.265 61.1111C307.275 66.9547 308.881 76.5738 309.44 79.3699L320.191 60.7951Z" fill="#D4D4D8"/>
<path d="M419.981 176.195L420.915 176.735L410.236 195.185C412.949 193.939 421.509 189.648 424.461 183.877C427.988 176.984 426.149 172.626 422.17 170.592C418.192 168.558 413.582 169.617 410.054 176.511C407.065 182.354 408.671 191.973 409.23 194.769L419.981 176.195Z" fill="#D4D4D8"/>
</g>
<defs>
<clipPath id="clip0_142_274">
<rect width="441.234" height="333.346" fill="white" transform="translate(82.9907 35.9626)"/>
</clipPath>
</defs>
</svg>
